# xmcd
#
# Track frame offsets: 
#        150
#        21286
#        43767
#        62734
#        80002
#        98687
#        116949
#        140405
#        155630
#        172489
#
# Disc length: 2496 seconds
#
# Revision: 1
# Processed by: cddbd v1.5.2PL0 Copyright (c) Steve Scherf et al.
# Submitted via: ExactAudioCopy v1.1
#
DISCID=9109be0a
DTITLE=John Verity - A Tone Hound on the Last Train to Corona
DYEAR=2014
DGENRE=Blues
TTITLE0=I Put a Spell On You
TTITLE1=Too Much - too much too young
TTITLE2=Double Trouble
TTITLE3=Nothing's Changed
TTITLE4=Mysterious Ways
TTITLE5=Help Me
TTITLE6=Everyday I Have The Blues
TTITLE7=Would You?
TTITLE8=Touch My Soul
TTITLE9=Love Hurts
EXTD=
EXTT0=
EXTT1=
EXTT2=
EXTT3=
EXTT4=
EXTT5=
EXTT6=
EXTT7=
EXTT8=
EXTT9=
PLAYORDER=
